:FULLY-SPECIFIED
:FORCE-ALL-JOINTS-BE-3DOF
:DEGREES
781
root 1.81688 16.2769 18.7299 -83.081 72.8966 269.861
lfemur -41.6418 19.0758 -17.4727
ltibia 51.4115 0 0
lfoot -23.3115 19.4153 0
ltoes 23.1686 0 0
rfemur -14.018 -23.4329 22.7478
rtibia 50.5165 0 0
rfoot -20.4175 -33.0047 0
rtoes -21.1056 0 0
lowerback 1.21282 4.73813 -0.645778
upperback -1.02962 6.31445 -3.62144
thorax -1.39376 3.17487 -3.49894
lowerneck -5.37619 -6.46379 -0.73024
upperneck -2.64304 -8.48258 5.2806
head 0.380893 -4.16637 1.58292
lclavicle 2.69128e-14 1.26709e-14 0
lhumerus -55.2511 -11.0564 94.178
lradius 68.8065 0 0
lwrist 12.7618 0 0
lhand -18.3046 -5.05464 0
lfingers 7.12502 0 0
lthumb 7.97571 24.7614 0
rclavicle 2.69128e-14 1.26709e-14 0
rhumerus -29.3173 48.6605 -110.805
rradius 78.3182 0 0
rwrist 6.18183 0 0
rhand -20.9189 -20.9625 0
rfingers 7.12502 0 0
rthumb 5.45249 -770.866 0
782
root 1.81332 16.295 18.8311 -79.7303 70.6032 273.16
lfemur -41.6731 18.3649 -17.0736
ltibia 50.9432 0 0
lfoot -22.9229 18.5673 0
ltoes 22.7598 0 0
rfemur -13.7094 -22.5194 22.6698
rtibia 49.7658 0 0
rfoot -20.5289 -32.1429 0
rtoes -21.0263 0 0
lowerback 1.25494 4.74101 -0.445508
upperback -0.98626 6.32254 -3.52125
thorax -1.36177 3.17785 -3.50777
lowerneck -5.40418 -6.31239 -0.625912
upperneck -2.60169 -8.29065 5.14377
head 0.38615 -4.07264 1.5268
lclavicle 3.22158e-14 1.13884e-14 0
lhumerus -55.2008 -10.944 94.1131
lradius 68.4318 0 0
lwrist 13.1508 0 0
lhand -18.0941 -4.73417 0
lfingers 7.12502 0 0
lthumb 8.17885 25.072 0
rclavicle 3.22158e-14 1.13884e-14 0
rhumerus -29.4681 48.5298 -110.95
rradius 77.9731 0 0
rwrist 6.03178 0 0
rhand -20.7756 -21.2516 0
rfingers 7.12502 0 0
rthumb 5.59076 -771.15 0
783
root 1.80976 16.3131 18.9322 -76.3795 68.3098 276.46
lfemur -41.7043 17.654 -16.6744
ltibia 50.4749 0 0
lfoot -22.5343 17.7192 0
ltoes 22.351 0 0
rfemur -13.4007 -21.6059 22.5917
rtibia 49.0152 0 0
rfoot -20.6403 -31.2811 0
rtoes -20.9469 0 0
lowerback 1.29707 4.74389 -0.245238
upperback -0.9429 6.33064 -3.42105
thorax -1.32977 3.18083 -3.51659
lowerneck -5.43217 -6.16099 -0.521584
upperneck -2.56034 -8.09872 5.00694
head 0.391406 -3.97891 1.47067
lclavicle 3.75189e-14 1.01059e-14 0
lhumerus -55.1505 -10.8317 94.0483
lradius 68.057 0 0
lwrist 13.5397 0 0
lhand -17.8835 -4.4137 0
lfingers 7.12502 0 0
lthumb 8.38199 25.3825 0
rclavicle 3.75189e-14 1.01059e-14 0
rhumerus -29.6188 48.399 -111.096
rradius 77.6281 0 0
rwrist 5.88174 0 0
rhand -20.6324 -21.5407 0
rfingers 7.12502 0 0
rthumb 5.72903 -771.435 0
784
root 1.80621 16.3313 19.0334 -73.0287 66.0165 279.76
lfemur -41.7356 16.9431 -16.2752
ltibia 50.0066 0 0
lfoot -22.1458 16.8712 0
ltoes 21.9422 0 0
rfemur -13.0921 -20.6924 22.5137
rtibia 48.2645 0 0
rfoot -20.7518 -30.4193 0
rtoes -20.8676 0 0
lowerback 1.3392 4.74676 -0.0449674
upperback -0.89954 6.33874 -3.32085
thorax -1.29777 3.1838 -3.52541
lowerneck -5.46016 -6.00959 -0.417255
upperneck -2.51899 -7.90679 4.87011
head 0.396662 -3.88517 1.41455
lclavicle 4.28219e-14 8.82345e-15 0
lhumerus -55.1002 -10.7194 93.9834
lradius 67.6823 0 0
lwrist 13.9287 0 0
lhand -17.6729 -4.09323 0
lfingers 7.12502 0 0
lthumb 8.58512 25.6931 0
rclavicle 4.28219e-14 8.82345e-15 0
rhumerus -29.7696 48.2683 -111.242
rradius 77.2831 0 0
rwrist 5.73169 0 0
rhand -20.4892 -21.8298 0
rfingers 7.12502 0 0
rthumb 5.8673 -771.72 0
785
root 1.80265 16.3494 19.1345 -69.6779 63.7231 283.059
lfemur -41.7668 16.2322 -15.8761
ltibia 49.5383 0 0
lfoot -21.7572 16.0231 0
ltoes 21.5334 0 0
rfemur -12.7834 -19.7789 22.4357
rtibia 47.5139 0 0
rfoot -20.8632 -29.5575 0
rtoes -20.7883 0 0
lowerback 1.38133 4.74964 0.155303
upperback -0.85618 6.34683 -3.22066
thorax -1.26578 3.18678 -3.53423
lowerneck -5.48815 -5.85819 -0.312927
upperneck -2.47764 -7.71486 4.73328
head 0.401919 -3.79144 1.35843
lclavicle 4.8125e-14 7.54097e-15 0
lhumerus -55.0499 -10.6071 93.9185
lradius 67.3075 0 0
lwrist 14.3176 0 0
lhand -17.4624 -3.77276 0
lfingers 7.12502 0 0
lthumb 8.78826 26.0037 0
rclavicle 4.8125e-14 7.54097e-15 0
rhumerus -29.9203 48.1376 -111.388
rradius 76.9381 0 0
rwrist 5.58164 0 0
rhand -20.3459 -22.1189 0
rfingers 7.12502 0 0
rthumb 6.00557 -772.004 0
786
root 1.7991 16.3675 19.2357 -66.3271 61.4297 286.359
lfemur -41.7981 15.5213 -15.4769
ltibia 49.0701 0 0
lfoot -21.3687 15.1751 0
ltoes 21.1247 0 0
rfemur -12.4748 -18.8654 22.3576
rtibia 46.7632 0 0
rfoot -20.9746 -28.6956 0
rtoes -20.7089 0 0
lowerback 1.42346 4.75252 0.355573
upperback -0.81282 6.35493 -3.12046
thorax -1.23378 3.18975 -3.54306
lowerneck -5.51614 -5.70679 -0.208599
upperneck -2.43629 -7.52293 4.59645
head 0.407175 -3.69771 1.30231
lclavicle 5.3428e-14 6.25849e-15 0
lhumerus -54.9996 -10.4948 93.8536
lradius 66.9328 0 0
lwrist 14.7066 0 0
lhand -17.2518 -3.45229 0
lfingers 7.12502 0 0
lthumb 8.9914 26.3142 0
rclavicle 5.3428e-14 6.25849e-15 0
rhumerus -30.0711 48.0069 -111.533
rradius 76.5931 0 0
rwrist 5.4316 0 0
rhand -20.2027 -22.4081 0
rfingers 7.12502 0 0
rthumb 6.14385 -772.289 0
787
root 1.79554 16.3857 19.3368 -62.9763 59.1363 289.659
lfemur -41.8293 14.8104 -15.0778
ltibia 48.6018 0 0
lfoot -20.9801 14.327 0
ltoes 20.7159 0 0
rfemur -12.1661 -17.9519 22.2796
rtibia 46.0126 0 0
rfoot -21.086 -27.8338 0
rtoes -20.6296 0 0
lowerback 1.46559 4.7554 0.555844
upperback -0.76946 6.36302 -3.02027
thorax -1.20178 3.19273 -3.55188
lowerneck -5.54413 -5.55539 -0.104271
upperneck -2.39494 -7.331 4.45962
head 0.412432 -3.60398 1.24619
lclavicle 5.87311e-14 4.97601e-15 0
lhumerus -54.9493 -10.3825 93.7887
lradius 66.558 0 0
lwrist 15.0955 0 0
lhand -17.0412 -3.13182 0
lfingers 7.12502 0 0
lthumb 9.19454 26.6248 0
rclavicle 5.87311e-14 4.97601e-15 0
rhumerus -30.2218 47.8762 -111.679
rradius 76.2481 0 0
rwrist 5.28155 0 0
rhand -20.0594 -22.6972 0
rfingers 7.12502 0 0
rthumb 6.28212 -772.573 0
788
root 1.79198 16.4038 19.438 -59.6255 56.8429 292.959
lfemur -41.8606 14.0995 -14.6786
ltibia 48.1335 0 0
lfoot -20.5915 13.4789 0
ltoes 20.3071 0 0
rfemur -11.8575 -17.0384 22.2015
rtibia 45.262 0 0
rfoot -21.1974 -26.972 0
rtoes -20.5502 0 0
lowerback 1.50772 4.75828 0.756114
upperback -0.7261 6.37112 -2.92007
thorax -1.16978 3.19571 -3.5607
lowerneck -5.57212 -5.40398 5.67742e-05
upperneck -2.3536 -7.13906 4.32279
head 0.417688 -3.51025 1.19007
lclavicle 6.40341e-14 3.69353e-15 0
lhumerus -54.8989 -10.2702 93.7239
lradius 66.1833 0 0
lwrist 15.4845 0 0
lhand -16.8306 -2.81135 0
lfingers 7.12502 0 0
lthumb 9.39768 26.9353 0
rclavicle 6.40341e-14 3.69353e-15 0
rhumerus -30.3725 47.7454 -111.825
rradius 75.9031 0 0
rwrist 5.13151 0 0
rhand -19.9162 -22.9863 0
rfingers 7.12502 0 0
rthumb 6.42039 -772.858 0
789
root 1.78843 16.4219 19.5391 -56.2747 54.5495 296.258
lfemur -41.8918 13.3886 -14.2795
ltibia 47.6652 0 0
lfoot -20.203 12.6309 0
ltoes 19.8983 0 0
rfemur -11.5488 -16.1249 22.1235
rtibia 44.5113 0 0
rfoot -21.3088 -26.1102 0
rtoes -20.4709 0 0
lowerback 1.54985 4.76115 0.956384
upperback -0.68274 6.37922 -2.81987
thorax -1.13779 3.19868 -3.56952
lowerneck -5.60011 -5.25258 0.104385
upperneck -2.31225 -6.94713 4.18596
head 0.422944 -3.41652 1.13395
lclavicle 6.93372e-14 2.41105e-15 0
lhumerus -54.8486 -10.1579 93.659
lradius 65.8085 0 0
lwrist 15.8734 0 0
lhand -16.6201 -2.49088 0
lfingers 7.12502 0 0
lthumb 9.60081 27.2459 0
rclavicle 6.93372e-14 2.41105e-15 0
rhumerus -30.5233 47.6147 -111.971
rradius 75.5581 0 0
rwrist 4.98146 0 0
rhand -19.773 -23.2754 0
rfingers 7.12502 0 0
rthumb 6.55866 -773.143 0
790
root 1.78487 16.4401 19.6403 -52.9239 52.2561 299.558
lfemur -41.9231 12.6777 -13.8803
ltibia 47.1969 0 0
lfoot -19.8144 11.7828 0
ltoes 19.4895 0 0
rfemur -11.2402 -15.2115 22.0455
rtibia 43.7607 0 0
rfoot -21.4202 -25.2484 0
rtoes -20.3916 0 0
lowerback 1.59198 4.76403 1.15665
upperback -0.63938 6.38731 -2.71968
thorax -1.10579 3.20166 -3.57835
lowerneck -5.6281 -5.10118 0.208713
upperneck -2.2709 -6.7552 4.04913
head 0.428201 -3.32279 1.07783
lclavicle 7.46402e-14 1.12857e-15 0
lhumerus -54.7983 -10.0456 93.5941
lradius 65.4338 0 0
lwrist 16.2624 0 0
lhand -16.4095 -2.17041 0
lfingers 7.12502 0 0
lthumb 9.80395 27.5565 0
rclavicle 7.46402e-14 1.12857e-15 0
rhumerus -30.674 47.484 -112.116
rradius 75.2131 0 0
rwrist 4.83141 0 0
rhand -19.6297 -23.5645 0
rfingers 7.12502 0 0
rthumb 6.69693 -773.427 0
791
root 1.78131 16.4582 19.7414 -49.5731 49.9627 302.858
lfemur -41.9543 11.9668 -13.4812
ltibia 46.7286 0 0
lfoot -19.4258 10.9348 0
ltoes 19.0807 0 0
rfemur -10.9315 -14.298 21.9674
rtibia 43.01 0 0
rfoot -21.5316 -24.3866 0
rtoes -20.3122 0 0
lowerback 1.63411 4.76691 1.35692
upperback -0.59602 6.39541 -2.61948
thorax -1.07379 3.20464 -3.58717
lowerneck -5.65609 -4.94978 0.313041
upperneck -2.22955 -6.56327 3.9123
head 0.433457 -3.22906 1.02171
lclavicle 7.99433e-14 -1.5391e-16 0
lhumerus -54.748 -9.93326 93.5292
lradius 65.059 0 0
lwrist 16.6513 0 0
lhand -16.1989 -1.84994 0
lfingers 7.12502 0 0
lthumb 10.0071 27.867 0
rclavicle 7.99433e-14 -1.5391e-16 0
rhumerus -30.8248 47.3533 -112.262
rradius 74.8681 0 0
rwrist 4.68137 0 0
rhand -19.4865 -23.8536 0
rfingers 7.12502 0 0
rthumb 6.8352 -773.712 0
792
root 1.77776 16.4763 19.8426 -46.2224 47.6693 306.157
lfemur -41.9856 11.2559 -13.082
ltibia 46.2604 0 0
lfoot -19.0373 10.0867 0
ltoes 18.672 0 0
rfemur -10.6228 -13.3845 21.8894
rtibia 42.2594 0 0
rfoot -21.643 -23.5247 0
rtoes -20.2329 0 0
lowerback 1.67623 4.76979 1.5572
upperback -0.55266 6.4035 -2.51929
thorax -1.0418 3.20761 -3.59599
lowerneck -5.68408 -4.79838 0.417369
upperneck -2.1882 -6.37134 3.77547
head 0.438714 -3.13533 0.965588
lclavicle 8.52463e-14 -1.43639e-15 0
lhumerus -54.6977 -9.82096 93.4644
lradius 64.6843 0 0
lwrist 17.0403 0 0
lhand -15.9884 -1.52946 0
lfingers 7.12502 0 0
lthumb 10.2102 28.1776 0
rclavicle 8.52463e-14 -1.43639e-15 0
rhumerus -30.9755 47.2225 -112.408
rradius 74.523 0 0
rwrist 4.53132 0 0
rhand -19.3432 -24.1428 0
rfingers 7.12502 0 0
rthumb 6.97348 -773.996 0
